name C:\Users\u0101727\Documents\MyRepositories\upper-imu-dc\Results\main_tracking\Case_49\kinematics_filtered.mot
datacolumns 10
datarows 42
range 2.20000000 2.61000000
endheader 
time	clav_prot	clav_elev	scapula_abduction	scapula_elevation	scapula_upward_rot	scapula_winging	plane_elv	shoulder_elv	axial_rot	
          2.20000000	        -40.84470587	          8.18361757	        -17.59933845	         -3.02890097	         53.15154473	        -11.03719773	         -7.64956892	         62.96262787	          3.45438410	
          2.21000000	        -40.94230089	          8.30719879	        -17.46601614	         -2.97473794	         53.56494551	        -11.15709115	         -7.26409680	         63.48829819	          3.41794650	
          2.22000000	        -41.04066752	          8.42766116	        -17.33987694	         -2.92136906	         53.96932666	        -11.27458550	         -6.88963413	         64.01595349	          3.37322652	
          2.23000000	        -41.13955155	          8.54481316	        -17.21984403	         -2.86899869	         54.36547735	        -11.38964153	         -6.52846565	         64.54569792	          3.32038427	
          2.24000000	        -41.23862537	          8.65845329	        -17.10460859	         -2.81782966	         54.75432341	        -11.50217222	         -6.18297155	         65.07766581	          3.25958218	
          2.25000000	        -41.33749394	          8.76838849	        -16.99265305	         -2.76804973	         55.13691857	        -11.61204774	         -5.85557830	         65.61200257	          3.19097293	
          2.26000000	        -41.43570574	          8.87445490	        -16.88228807	         -2.71981687	         55.51442923	        -11.71910384	         -5.54869615	         66.14884094	          3.11468765	
          2.27000000	        -41.53276857	          8.97653948	        -16.77170372	         -2.67324432	         55.88811167	        -11.82315314	         -5.26464369	         66.68827325	          3.03082543	
          2.28000000	        -41.62817012	          9.07460070	        -16.65903440	         -2.62838663	         56.25928094	        -11.92399906	         -5.00556117	         67.23032121	          2.93944610	
          2.29000000	        -41.72140267	          9.16868630	        -16.54243561	         -2.58522823	         56.62927173	        -12.02145165	         -4.77331558	         67.77490503	          2.84056746	
          2.30000000	        -41.81199066	          9.25894569	        -16.42016909	         -2.54367594	         56.99939221	        -12.11534437	         -4.56940173	         68.32181407	          2.73416869	
          2.31000000	        -41.89951965	          9.34563526	        -16.29069135	         -2.50355687	         57.37087302	        -12.20555048	         -4.39484500	         68.87068172	          2.62020097	
          2.32000000	        -41.98366445	          9.42911465	        -16.15273950	         -2.46462272	         57.74481422	        -12.29199783	         -4.25011258	         69.42096682	          2.49860551	
          2.33000000	        -42.06421422	          9.50983329	        -16.00540717	         -2.42656095	         58.12213423	        -12.37468046	         -4.13504035	         69.97194410	          2.36933882	
          2.34000000	        -42.14109194	          9.58830717	        -15.84820338	         -2.38901286	         58.50352471	        -12.45366582	         -4.04878278	         70.52270535	          2.23240354	
          2.35000000	        -42.21436612	          9.66508705	        -15.68108819	         -2.35159733	         58.88941579	        -12.52909658	         -3.98979191	         71.07217255	          2.08788265	
          2.36000000	        -42.28425328	          9.74072047	        -15.50448052	         -2.31393877	         59.27995501	        -12.60118662	         -3.95582965	         71.61912301	          1.93597391	
          2.37000000	        -42.35111053	          9.81571097	        -15.31923644	         -2.27569649	         59.67500265	        -12.67021148	         -3.94401472	         72.16222558	          1.77702103	
          2.38000000	        -42.41541874	          9.89047854	        -15.12659922	         -2.23659297	         60.07414453	        -12.73649426	         -3.95090244	         72.70008575	          1.61153797	
          2.39000000	        -42.47775789	          9.96532536	        -14.92812548	         -2.19643784	         60.47672132	        -12.80038835	         -3.97259266	         73.23129650	          1.44022336	
          2.40000000	        -42.53877686	         10.04041060	        -14.72559436	         -2.15514533	         60.88187225	        -12.86225904	         -4.00485821	         73.75449077	          1.26396252	
          2.41000000	        -42.59916057	         10.11573692	        -14.52090819	         -2.11274313	         61.28858905	        -12.92246573	         -4.04328499	         74.26839150	          1.08381605	
          2.42000000	        -42.65959749	         10.19115017	        -14.31599350	         -2.06937188	         61.69577566	        -12.98134668	         -4.08341399	         74.77185519	          0.90099514	
          2.43000000	        -42.72075007	         10.26635232	        -14.11271062	         -2.02527525	         62.10230852	        -13.03920743	         -4.12087632	         75.26390592	          0.71682493	
          2.44000000	        -42.78323006	         10.34092636	        -13.91277799	         -1.98078176	         62.50709302	        -13.09631379	         -4.15151363	         75.74375780	          0.53269875	
          2.45000000	        -42.84758002	         10.41437042	        -13.71771539	         -1.93628013	         62.90911217	        -13.15288920	         -4.17147865	         76.21082561	          0.35002678	
          2.46000000	        -42.91426100	         10.48613790	        -13.52880722	         -1.89219056	         63.30746496	        -13.20911609	         -4.17731278	         76.66472423	          0.17018304	
          2.47000000	        -42.98364623	         10.55567934	        -13.34708515	         -1.84893490	         63.70139279	        -13.26514010	         -4.16600012	         77.10525891	         -0.00554513	
          2.48000000	        -43.05601953	         10.62248232	        -13.17332742	         -1.80690833	         64.09029349	        -13.32107583	         -4.13499914	         77.53240884	         -0.17600171	
          2.49000000	        -43.13157732	         10.68610556	        -13.00807124	         -1.76645508	         64.47372367	        -13.37701295	         -4.08225470	         77.94630673	         -0.34019785	
          2.50000000	        -43.21043304	         10.74620476	        -12.85163442	         -1.72785001	         64.85139051	        -13.43302154	         -4.00619361	         78.34721693	         -0.49733727	
          2.51000000	        -43.29262277	         10.80254838	        -12.70414252	         -1.69128723	         65.22313495	        -13.48915584	         -3.90570735	         78.73551394	         -0.64683046	
          2.52000000	        -43.37811136	         10.85502301	        -12.56555829	         -1.65687603	         65.58890853	        -13.54545626	         -3.78012533	         79.11166265	         -0.78829795	
          2.53000000	        -43.46679840	         10.90362874	        -12.43571079	         -1.62464382	         65.94874618	        -13.60194938	         -3.62918158	         79.47620094	         -0.92156363	
          2.54000000	        -43.55852384	         10.94846595	        -12.31432222	         -1.59454514	         66.30273749	        -13.65864625	         -3.45297734	         79.82972465	         -1.04663973	
          2.55000000	        -43.65307288	         10.98971539	        -12.20103108	         -1.56647535	         66.65099863	        -13.71553936	         -3.25194164	         80.17287455	         -1.16370523	
          2.56000000	        -43.75018033	         11.02761389	        -12.09541089	         -1.54028755	         66.99364684	        -13.77259877	         -3.02679132	         80.50632466	         -1.27307978	
          2.57000000	        -43.84953455	         11.06242798	        -11.99698429	         -1.51581087	         67.33077930	        -13.82976789	         -2.77849170	         80.83077115	         -1.37519514	
          2.58000000	        -43.95078129	         11.09442792	        -11.90523291	         -1.49286868	         67.66245723	        -13.88695965	         -2.50821870	         81.14692100	         -1.47056568	
          2.59000000	        -44.05352770	         11.12386399	        -11.81960380	         -1.47129523	         67.98869601	        -13.94405352	         -2.21732287	         81.45547984	         -1.55975986	
          2.60000000	        -44.15734708	         11.15094696	        -11.73951352	         -1.45094942	         68.30946137	        -14.00089400	         -1.90729537	         81.75713840	         -1.64337373	
          2.61000000	        -44.26178451	         11.17583379	        -11.66435092	         -1.43172509	         68.62467142	        -14.05729080	         -1.57973608	         82.05255775	         -1.72200757	
